<svg xmlns="http://www.w3.org/2000/svg" width="160" height="47" viewBox="0 0 160 47">
    <g fill="none" fill-rule="evenodd">
        <rect width="160" height="47" fill="#1C1A16" rx="5"/>
        <path fill="#FEFEFE" d="M35 22.72c-.036-3.856 3.171-5.733 3.317-5.82-1.814-2.638-4.63-2.997-5.619-3.026-2.363-.247-4.656 1.41-5.857 1.41-1.228 0-3.086-1.385-5.082-1.345-2.572.042-4.978 1.524-6.296 3.825-2.722 4.694-.692 11.591 1.915 15.388 1.306 1.857 2.831 3.933 4.826 3.859 1.952-.081 2.68-1.239 5.038-1.239 2.336 0 3.021 1.239 5.056 1.192 2.096-.034 3.414-1.867 4.672-3.742 1.51-2.13 2.115-4.227 2.14-4.335-.05-.017-4.07-1.544-4.11-6.168M31.154 11.378c1.05-1.307 1.77-3.088 1.568-4.892-1.52.067-3.419 1.046-4.513 2.326-.968 1.127-1.836 2.975-1.611 4.712 1.71.126 3.46-.859 4.556-2.146M58.584 30.104l-1.35-4.159c-.145-.423-.413-1.424-.808-2.998h-.047a124.52 124.52 0 0 1-.76 2.998l-1.33 4.159h4.295zm4.672 6.641H60.53l-1.495-4.679H53.84l-1.425 4.68h-2.657l5.15-15.926h3.177l5.171 15.925zM73.886 30.955c0-1.118-.253-2.04-.759-2.765-.554-.755-1.298-1.134-2.229-1.134-.633 0-1.21.21-1.72.626-.514.42-.851.966-1.009 1.645-.08.315-.117.573-.117.777v1.915c0 .835.255 1.54.768 2.113.516.578 1.184.863 2.006.863.965 0 1.717-.368 2.253-1.11.54-.741.807-1.716.807-2.93m2.61-.094c0 1.953-.53 3.497-1.59 4.631-.949 1.008-2.128 1.511-3.534 1.511-1.519 0-2.61-.544-3.275-1.63h-.045v6.048h-2.564v-12.38c0-1.227-.031-2.486-.095-3.78h2.253l.143 1.82h.049c.853-1.37 2.151-2.055 3.89-2.055 1.358 0 2.495.536 3.404 1.607.91 1.073 1.364 2.481 1.364 4.228M87.15 30.955c0-1.118-.254-2.04-.762-2.765-.554-.755-1.296-1.134-2.229-1.134-.634 0-1.208.21-1.72.626-.514.42-.85.966-1.007 1.645-.081.315-.12.573-.12.777v1.915c0 .835.256 1.54.77 2.113.515.578 1.181.863 2.007.863.963 0 1.716-.368 2.253-1.11.535-.741.807-1.716.807-2.93m2.608-.094c0 1.953-.529 3.497-1.59 4.631-.95 1.008-2.126 1.511-3.535 1.511-1.518 0-2.608-.544-3.272-1.63h-.047v6.048H78.75v-12.38c0-1.227-.032-2.486-.094-3.78h2.253l.143 1.82h.05c.85-1.37 2.146-2.055 3.888-2.055 1.359 0 2.494.536 3.405 1.607.909 1.073 1.362 2.481 1.362 4.228M104.586 32.279c0 1.354-.471 2.456-1.422 3.307-1.041.93-2.492 1.394-4.353 1.394-1.72 0-3.102-.33-4.147-.992l.594-2.126a7.047 7.047 0 0 0 3.705 1.015c.965 0 1.717-.216 2.256-.649.536-.434.804-1.015.804-1.74 0-.646-.22-1.192-.662-1.633-.443-.442-1.181-.852-2.21-1.231-2.8-1.042-4.197-2.564-4.197-4.567 0-1.31.489-2.383 1.47-3.218.98-.837 2.285-1.256 3.916-1.256 1.455 0 2.665.254 3.628.757l-.639 2.079c-.902-.487-1.921-.732-3.062-.732-.902 0-1.605.22-2.11.661-.425.394-.64.875-.64 1.442 0 .629.244 1.15.734 1.558.426.378 1.201.788 2.325 1.23 1.377.552 2.387 1.197 3.037 1.936.648.741.973 1.663.973 2.765M113.055 27.175h-2.823v5.576c0 1.418.498 2.126 1.496 2.126.456 0 .836-.04 1.137-.117l.07 1.937c-.503.189-1.169.283-1.991.283-1.013 0-1.804-.307-2.373-.92-.568-.615-.854-1.648-.854-3.096v-5.789h-1.684V25.26h1.684V23.16l2.515-.757v2.858h2.823v1.915zM123.138 30.99c0-1.057-.228-1.965-.689-2.723-.535-.917-1.303-1.375-2.299-1.375-1.03 0-1.813.458-2.349 1.375-.46.758-.686 1.682-.686 2.773 0 1.058.226 1.966.686 2.723.552.916 1.328 1.374 2.327 1.374.978 0 1.746-.465 2.298-1.398.475-.773.712-1.69.712-2.748m2.658-.083c0 1.765-.505 3.214-1.517 4.348-1.062 1.167-2.47 1.747-4.223 1.747-1.695 0-3.04-.559-4.046-1.677-1.005-1.118-1.506-2.528-1.506-4.227 0-1.782.516-3.238 1.554-4.37 1.034-1.137 2.43-1.703 4.186-1.703 1.691 0 3.053.559 4.081 1.677.982 1.089 1.471 2.488 1.471 4.205M134.122 27.505a4.587 4.587 0 0 0-.805-.07c-.9 0-1.6.34-2.09 1.017-.425.599-.64 1.355-.64 2.267v6.025h-2.56l.022-7.866c0-1.324-.033-2.529-.094-3.616h2.23l.095 2.198h.069c.27-.755.699-1.363 1.282-1.82a3.109 3.109 0 0 1 1.853-.614c.235 0 .45.016.638.045v2.434zM143.137 29.797c.018-.754-.149-1.408-.496-1.96-.444-.709-1.127-1.064-2.043-1.064-.837 0-1.517.348-2.039 1.04-.427.552-.68 1.212-.757 1.984h5.335zm2.443.662c0 .458-.031.842-.092 1.158h-7.686c.03 1.134.402 2.001 1.114 2.6.646.536 1.486.8 2.515.8 1.135 0 2.173-.18 3.108-.542l.402 1.773c-1.09.473-2.38.71-3.869.71-1.785 0-3.19-.525-4.21-1.573-1.018-1.046-1.53-2.454-1.53-4.217 0-1.731.474-3.174 1.425-4.325.994-1.228 2.34-1.84 4.031-1.84 1.66 0 2.921.612 3.776 1.84.677.978 1.016 2.182 1.016 3.616zM56.31 11.059c0-.915-.244-1.614-.73-2.103-.487-.487-1.193-.73-2.127-.73-.397 0-.734.027-1.014.081v5.85c.155.024.44.035.85.035.964 0 1.71-.266 2.231-.801.526-.534.79-1.311.79-2.332m1.326-.036c0 1.408-.422 2.47-1.27 3.18-.784.657-1.9.988-3.343.988-.715 0-1.33-.031-1.843-.094V7.402c.668-.108 1.391-.162 2.168-.162 1.376 0 2.413.297 3.114.894.782.672 1.174 1.636 1.174 2.889M63.371 12.294c0-.52-.114-.965-.34-1.338-.264-.45-.64-.677-1.129-.677-.504 0-.89.226-1.154.677-.226.373-.338.826-.338 1.36 0 .521.112.968.338 1.341.27.45.65.675 1.143.675.48 0 .859-.229 1.13-.687.232-.38.35-.83.35-1.35m1.306-.04c0 .865-.25 1.577-.747 2.133-.52.575-1.213.862-2.075.862-.833 0-1.494-.276-1.988-.826-.493-.548-.74-1.24-.74-2.077 0-.875.255-1.59.765-2.148.507-.558 1.195-.835 2.057-.835.833 0 1.5.276 2.003.824.484.534.725 1.223.725 2.066M74.118 9.48l-1.774 5.64h-1.152l-.735-2.447a18.664 18.664 0 0 1-.455-1.823h-.021c-.111.618-.263 1.226-.457 1.823l-.78 2.447h-1.167l-1.666-5.64h1.295l.64 2.68c.155.636.283 1.238.385 1.811h.024c.094-.472.246-1.072.467-1.8l.802-2.692h1.025l.77 2.635c.188.644.34 1.262.454 1.857h.034c.087-.58.214-1.199.388-1.857l.688-2.635h1.235zM80.644 15.12h-1.258v-3.23c0-.997-.38-1.493-1.143-1.493-.373 0-.673.137-.909.41-.232.276-.35.596-.35.968v3.345h-1.258v-4.027c0-.496-.014-1.033-.045-1.614h1.105l.06.882h.035c.145-.274.364-.501.652-.68.34-.21.723-.32 1.141-.32.53 0 .969.174 1.318.513.435.417.652 1.043.652 1.868v3.378zM82.857 15.12h1.262V6.89h-1.262zM90.226 12.294c0-.52-.114-.965-.339-1.338-.265-.45-.64-.677-1.13-.677-.504 0-.89.226-1.156.677-.224.373-.337.826-.337 1.36 0 .521.113.968.337 1.341.272.45.652.675 1.142.675.483 0 .861-.229 1.133-.687.232-.38.35-.83.35-1.35m1.305-.04c0 .865-.25 1.577-.748 2.133-.52.575-1.211.862-2.074.862-.832 0-1.493-.276-1.987-.826-.493-.548-.74-1.24-.74-2.077 0-.875.253-1.59.763-2.148s1.194-.835 2.06-.835c.829 0 1.498.276 2.002.824.482.534.724 1.223.724 2.066M96.319 13.182v-.87c-1.39-.023-2.086.357-2.086 1.138 0 .294.084.512.247.66.16.146.365.22.611.22.277 0 .533-.086.772-.26.235-.172.38-.396.433-.667a.885.885 0 0 0 .023-.221m1.308 1.938h-1.132l-.093-.649h-.036c-.39.52-.94.777-1.653.777-.538 0-.97-.17-1.297-.512-.295-.308-.44-.692-.44-1.147 0-.689.288-1.215.87-1.58.575-.364 1.39-.54 2.439-.533v-.105c0-.743-.392-1.114-1.173-1.114-.56 0-1.053.14-1.478.418l-.256-.824c.529-.325 1.174-.487 1.941-.487 1.486 0 2.225.777 2.225 2.333v2.078c0 .563.028 1.013.083 1.345M103.48 12.742v-.94c0-.162-.013-.296-.037-.395a1.408 1.408 0 0 0-.458-.761 1.225 1.225 0 0 0-.842-.307c-.468 0-.837.184-1.105.556-.271.373-.405.848-.405 1.426 0 .56.13 1.014.387 1.36.273.372.64.557 1.097.557.415 0 .75-.155.996-.465.243-.285.366-.63.366-1.031m1.304 2.378h-1.119l-.06-.905h-.034c-.357.689-.964 1.035-1.817 1.035-.686 0-1.25-.268-1.701-.803-.451-.533-.676-1.226-.676-2.077 0-.914.243-1.652.731-2.218.475-.526 1.058-.788 1.75-.788.762 0 1.295.254 1.597.766h.025V6.891h1.257V13.6c0 .55.016 1.056.047 1.52M114.247 12.294c0-.52-.114-.965-.339-1.338-.263-.45-.643-.677-1.128-.677-.507 0-.893.226-1.156.677-.224.373-.339.826-.339 1.36 0 .521.115.968.34 1.341.271.45.651.675 1.142.675.48 0 .857-.229 1.128-.687.236-.38.352-.83.352-1.35m1.307-.04c0 .865-.25 1.577-.75 2.133-.518.575-1.21.862-2.072.862-.834 0-1.495-.276-1.988-.826-.492-.548-.738-1.24-.738-2.077 0-.875.253-1.59.76-2.148.51-.558 1.197-.835 2.057-.835.834 0 1.5.276 2.007.824.481.534.724 1.223.724 2.066M122.323 15.12h-1.26v-3.23c0-.997-.381-1.493-1.141-1.493a1.14 1.14 0 0 0-.91.41 1.459 1.459 0 0 0-.35.968v3.345h-1.257v-4.027c0-.496-.018-1.033-.048-1.614h1.109l.058.882h.036c.145-.274.362-.501.652-.68.34-.21.724-.32 1.14-.32.531 0 .971.174 1.319.513.435.417.652 1.043.652 1.868v3.378zM130.798 10.419h-1.387v2.741c0 .696.242 1.044.735 1.044.224 0 .41-.02.558-.058l.036.95c-.25.093-.576.141-.98.141-.498 0-.885-.151-1.164-.452-.279-.304-.42-.808-.42-1.522v-2.844h-.83v-.94h.83V8.446l1.235-.37v1.403h1.387v.94zM137.462 15.12h-1.257v-3.206c0-1.012-.38-1.517-1.145-1.517-.579 0-.98.294-1.196.879-.042.124-.06.275-.06.452v3.392h-1.259V6.89h1.259v3.4h.025c.395-.618.962-.928 1.699-.928.523 0 .952.173 1.294.512.426.425.64 1.057.64 1.894v3.352zM143.14 11.708c.008-.371-.074-.693-.246-.963-.215-.347-.55-.523-1-.523-.412 0-.745.17-1.006.51-.207.273-.33.597-.37.976h2.622zm1.203.325c0 .223-.018.414-.047.57h-3.778c.015.557.196.981.548 1.274.318.265.731.396 1.234.396.562 0 1.069-.089 1.529-.267l.195.87c-.533.232-1.168.349-1.898.349-.876 0-1.567-.258-2.07-.77-.497-.516-.751-1.207-.751-2.072 0-.852.232-1.56.7-2.126.492-.605 1.151-.906 1.98-.906.819 0 1.435.301 1.854.906.334.479.504 1.072.504 1.776z"/>
    </g>
</svg>
