<svg xmlns="http://www.w3.org/2000/svg" width="160" height="47" viewBox="0 0 160 47">
    <defs>
        <path id="a" d="M12.369 8.925c-.345.365-.55.93-.55 1.664v26.185c0 .734.205 1.299.55 1.662l.086.087L27.14 23.854v-.346L12.455 8.838l-.086.087z"/>
        <path id="b" d="M27.14 23.508v.346l4.893 4.891.112-.061 5.799-3.292c1.655-.941 1.655-2.48 0-3.42l-5.8-3.292-.11-.063-4.894 4.891z"/>
        <path id="c" d="M12.369 38.436c.545.578 1.447.65 2.462.074l17.314-9.828-5.005-5-14.771 14.754z"/>
        <path id="d" d="M12.369 8.925l14.77 14.756 5.006-5.001L14.83 8.853c-.476-.271-.928-.4-1.328-.4-.455 0-.845.165-1.134.472"/>
    </defs>
    <g fill="none" fill-rule="evenodd">
        <rect width="160" height="47" fill="#1C1A16" rx="5"/>
        <path fill="#FFF" d="M56.2 12.128c0 .992-.294 1.782-.883 2.371-.67.701-1.541 1.052-2.613 1.052-1.026 0-1.9-.355-2.616-1.067-.72-.71-1.078-1.592-1.078-2.644s.358-1.933 1.078-2.645c.717-.71 1.59-1.066 2.616-1.066.509 0 .997.1 1.46.298.463.199.834.463 1.112.793l-.625.625c-.471-.561-1.12-.843-1.947-.843-.749 0-1.396.263-1.942.789s-.819 1.208-.819 2.05c0 .839.273 1.522.819 2.047a2.701 2.701 0 0 0 1.942.789c.795 0 1.456-.264 1.987-.793.344-.345.543-.823.595-1.439h-2.582v-.854h3.446c.033.186.05.364.05.537"/>
        <path stroke="#FFF" stroke-width=".5" d="M56.2 12.128c0 .992-.294 1.782-.883 2.371-.67.701-1.541 1.052-2.613 1.052-1.026 0-1.9-.355-2.616-1.067-.72-.71-1.078-1.592-1.078-2.644s.358-1.933 1.078-2.645c.717-.71 1.59-1.066 2.616-1.066.509 0 .997.1 1.46.298.463.199.834.463 1.112.793l-.625.625c-.471-.561-1.12-.843-1.947-.843-.749 0-1.396.263-1.942.789s-.819 1.208-.819 2.05c0 .839.273 1.522.819 2.047a2.701 2.701 0 0 0 1.942.789c.795 0 1.456-.264 1.987-.793.344-.345.543-.823.595-1.439h-2.582v-.854h3.446c.033.186.05.364.05.537z"/>
        <path fill="#FFF" d="M61.662 9.16h-3.237v2.253h2.919v.853h-2.92v2.252h3.238v.874h-4.151V8.288h4.151z"/>
        <path stroke="#FFF" stroke-width=".5" d="M61.662 9.16h-3.237v2.253h2.919v.853h-2.92v2.252h3.238v.874h-4.151V8.288h4.151z"/>
        <path fill="#FFF" d="M65.515 15.392h-.913V9.16h-1.987v-.872h4.887v.872h-1.987z"/>
        <path stroke="#FFF" stroke-width=".5" d="M65.515 15.392h-.913V9.16h-1.987v-.872h4.887v.872h-1.987z"/>
        <path fill="#FFF" d="M71.038 15.392h.913V8.288h-.913z"/>
        <path stroke="#FFF" stroke-width=".5" d="M71.038 15.392h.913V8.288h-.913z"/>
        <path fill="#FFF" d="M76.004 15.392h-.914V9.16h-1.986v-.872h4.886v.872h-1.986z"/>
        <path stroke="#FFF" stroke-width=".5" d="M76.004 15.392h-.914V9.16h-1.986v-.872h4.886v.872h-1.986z"/>
        <path fill="#FFF" d="M82.701 13.879c.526.533 1.17.798 1.932.798.761 0 1.406-.265 1.932-.798s.79-1.212.79-2.039c0-.826-.264-1.507-.79-2.039a2.612 2.612 0 0 0-1.932-.799c-.762 0-1.406.266-1.932.8-.525.53-.79 1.212-.79 2.038 0 .827.265 1.506.79 2.039m4.54.594c-.7.719-1.568 1.078-2.608 1.078s-1.908-.359-2.606-1.078c-.7-.717-1.048-1.595-1.048-2.633s.349-1.917 1.048-2.634c.698-.718 1.567-1.077 2.606-1.077 1.034 0 1.9.36 2.603 1.081.701.722 1.052 1.598 1.052 2.63 0 1.038-.35 1.916-1.047 2.633"/>
        <path stroke="#FFF" stroke-width=".5" d="M82.701 13.879c.526.533 1.17.798 1.932.798.761 0 1.406-.265 1.932-.798s.79-1.212.79-2.039c0-.826-.264-1.507-.79-2.039a2.612 2.612 0 0 0-1.932-.799c-.762 0-1.406.266-1.932.8-.525.53-.79 1.212-.79 2.038 0 .827.265 1.506.79 2.039zm4.54.594c-.7.719-1.568 1.078-2.608 1.078s-1.908-.359-2.606-1.078c-.7-.717-1.048-1.595-1.048-2.633s.349-1.917 1.048-2.634c.698-.718 1.567-1.077 2.606-1.077 1.034 0 1.9.36 2.603 1.081.701.722 1.052 1.598 1.052 2.63 0 1.038-.35 1.916-1.047 2.633z"/>
        <path fill="#FFF" d="M89.57 15.392V8.288h1.112l3.456 5.526h.04l-.04-1.37V8.289h.915v7.104H94.1l-3.615-5.795h-.04l.04 1.37v4.425z"/>
        <path stroke="#FFF" stroke-width=".5" d="M89.57 15.392V8.288h1.112l3.456 5.526h.04l-.04-1.37V8.289h.915v7.104H94.1l-3.615-5.795h-.04l.04 1.37v4.425z"/>
        <path fill="#FFF" d="M126.739 35.52h2.21V20.719h-2.21V35.52zm19.92-9.47l-2.536 6.418h-.076l-2.63-6.418h-2.383l3.947 8.97-2.25 4.989h2.305l6.082-13.959h-2.46zm-12.543 7.789c-.723 0-1.734-.363-1.734-1.258 0-1.141 1.258-1.58 2.345-1.58.97 0 1.43.21 2.02.495a2.68 2.68 0 0 1-2.631 2.343zm.267-8.113c-1.6 0-3.259.706-3.945 2.266l1.963.82c.42-.82 1.2-1.086 2.02-1.086 1.144 0 2.307.685 2.326 1.904v.152c-.4-.228-1.259-.57-2.307-.57-2.116 0-4.27 1.161-4.27 3.331 0 1.981 1.735 3.258 3.679 3.258 1.486 0 2.307-.667 2.82-1.448h.078v1.142h2.135V29.82c0-2.627-1.965-4.094-4.499-4.094zm-13.667 2.126h-3.146V22.78h3.146c1.653 0 2.592 1.366 2.592 2.536 0 1.147-.939 2.537-2.592 2.537zm-.057-7.134h-5.299V35.52h2.21v-5.607h3.089c2.45 0 4.86-1.774 4.86-4.598s-2.41-4.597-4.86-4.597zM91.763 33.84c-1.528 0-2.807-1.277-2.807-3.032 0-1.775 1.28-3.071 2.807-3.071 1.508 0 2.692 1.296 2.692 3.07 0 1.756-1.184 3.033-2.692 3.033zm2.539-6.962h-.076c-.497-.59-1.452-1.126-2.654-1.126-2.52 0-4.832 2.213-4.832 5.056 0 2.823 2.311 5.016 4.832 5.016 1.202 0 2.157-.534 2.654-1.144h.076v.724c0 1.928-1.031 2.957-2.692 2.957-1.356 0-2.196-.972-2.54-1.793l-1.928.802c.553 1.334 2.023 2.975 4.468 2.975 2.597 0 4.793-1.526 4.793-5.246v-9.041h-2.101v.82zm3.629 8.641h2.214V20.719H97.93V35.52zm5.479-4.883c-.057-1.946 1.509-2.937 2.634-2.937.88 0 1.624.439 1.873 1.068l-4.507 1.87zm6.874-1.679c-.42-1.125-1.7-3.205-4.315-3.205-2.597 0-4.755 2.041-4.755 5.037 0 2.823 2.139 5.035 5.002 5.035 2.31 0 3.647-1.41 4.202-2.231l-1.719-1.145c-.573.84-1.356 1.392-2.483 1.392-1.126 0-1.928-.515-2.442-1.526l6.739-2.785-.23-.572zM56.585 27.3v2.136h5.117c-.152 1.202-.554 2.08-1.164 2.69-.745.744-1.91 1.565-3.953 1.565-3.15 0-5.614-2.538-5.614-5.685s2.463-5.685 5.614-5.685c1.7 0 2.94.667 3.857 1.527l1.509-1.507c-1.28-1.221-2.979-2.156-5.366-2.156-4.316 0-7.944 3.51-7.944 7.821 0 4.31 3.628 7.82 7.944 7.82 2.33 0 4.086-.763 5.46-2.193 1.413-1.412 1.853-3.396 1.853-4.998 0-.495-.038-.953-.115-1.335h-7.198zm13.13 6.542c-1.527 0-2.844-1.259-2.844-3.051 0-1.813 1.317-3.052 2.844-3.052 1.528 0 2.846 1.24 2.846 3.052 0 1.792-1.318 3.051-2.846 3.051zm0-8.088c-2.788 0-5.06 2.118-5.06 5.037 0 2.9 2.272 5.035 5.06 5.035 2.789 0 5.06-2.135 5.06-5.035 0-2.919-2.271-5.037-5.06-5.037zm11.039 8.088c-1.528 0-2.846-1.259-2.846-3.051 0-1.813 1.318-3.052 2.846-3.052 1.527 0 2.844 1.24 2.844 3.052 0 1.792-1.317 3.051-2.844 3.051zm0-8.088c-2.788 0-5.06 2.118-5.06 5.037 0 2.9 2.272 5.035 5.06 5.035 2.787 0 5.06-2.135 5.06-5.035 0-2.919-2.273-5.037-5.06-5.037z"/>
        <path fill="#000" d="M32.034 28.572l-17.203 9.766c-.962.544-1.823.509-2.375.011l-.088.09.087.084c.553.497 1.414.533 2.376-.013l17.313-9.828-.11-.11z"/>
        <path fill="#000" d="M12.368 38.265c-.345-.365-.549-.93-.549-1.664v.173c0 .733.204 1.3.549 1.664l.088-.088-.088-.085zM37.943 25.218l-5.91 3.354.111.11 5.8-3.291c.828-.47 1.241-1.09 1.241-1.709-.07.56-.49 1.11-1.242 1.536"/>
        <path fill="#FFF" d="M14.83 9.026l23.113 13.118c.752.426 1.172.976 1.242 1.537.001-.62-.413-1.24-1.242-1.71L14.831 8.853c-1.657-.94-3.012-.159-3.012 1.735v.173c0-1.894 1.355-2.676 3.012-1.735"/>
        <path fill="#00D1FF" d="M12.369 8.925c-.345.365-.55.93-.55 1.664v26.185c0 .734.205 1.299.55 1.662l.086.087L27.14 23.854v-.346L12.455 8.838l-.086.087z"/>
        <path fill="#FB3746" d="M12.369 38.436c.545.578 1.447.65 2.462.074l17.314-9.828-5.005-5-14.771 14.754z"/>
        <path fill="#FFCD00" d="M27.14 23.508v.346l4.893 4.891.112-.061 5.799-3.292c1.655-.941 1.655-2.48 0-3.42l-5.8-3.292-.11-.063-4.894 4.891z"/>
        <path fill="#00F076" d="M12.369 8.925l14.77 14.756 5.006-5.001L14.83 8.853c-.476-.271-.928-.4-1.328-.4-.455 0-.845.165-1.134.472"/>
    </g>
</svg>
