<svg width="70" height="27" viewBox="0 0 70 27" fill="none" xmlns="http://www.w3.org/2000/svg">
<path fill-rule="evenodd" clip-rule="evenodd" d="M13.5 2.5H56.5C62.5751 2.5 67.5 7.42487 67.5 13.5C67.5 19.5751 62.5751 24.5 56.5 24.5H13.5C7.42487 24.5 2.5 19.5751 2.5 13.5C2.5 7.42487 7.42487 2.5 13.5 2.5ZM0 13.5C0 6.04416 6.04416 0 13.5 0H56.5C63.9558 0 70 6.04416 70 13.5C70 20.9558 63.9558 27 56.5 27H13.5C6.04416 27 0 20.9558 0 13.5ZM30.9994 7.91024C30.5363 6.56884 29.5337 5.80078 28.2486 5.80078C26.9761 5.80078 25.9806 6.56884 25.5186 7.91024L21.8324 18.7094C21.5548 19.5386 21.941 20.4827 22.673 20.7696C22.8464 20.8438 23.0313 20.8806 23.2195 20.8806C23.8354 20.8806 24.4037 20.4731 24.6372 19.8573L25.6632 16.6928H30.8161L31.841 19.8573C32.0369 20.4589 32.5992 20.863 33.2412 20.863C33.4365 20.863 33.6269 20.8245 33.803 20.7498C34.5269 20.4589 34.9212 19.5041 34.6469 18.7094L30.9994 7.91024ZM28.0931 9.17215L26.5806 13.8167H29.8784L28.3877 9.18121C28.368 9.1082 28.3195 9.04424 28.2486 9.04424C28.1368 9.04424 28.1013 9.14159 28.0931 9.17215ZM46.6067 6.0042C45.7656 6.0042 45.1061 6.70821 45.1061 7.60484V16.1758L40.3437 7.32904C39.8774 6.4888 39.1055 6.0444 38.2263 6.0444C36.8752 6.0444 35.9304 7.0672 35.9304 8.53161V19.2035C35.9304 20.0811 36.6264 20.8236 37.4501 20.8236C38.2803 20.8236 38.9304 20.1118 38.9304 19.2035V10.3729L43.8477 19.4592C44.4565 20.5534 45.3838 20.7834 46.0056 20.7834C47.2029 20.7834 48.1067 19.7919 48.1067 18.4771V7.60484C48.1067 6.70821 47.4478 6.0042 46.6067 6.0042ZM55.1481 6.02617C59.1425 6.02617 61.4863 8.23242 61.7503 12.2368C61.8196 13.1452 61.7994 13.9529 61.7694 14.4702C61.5016 18.5822 59.1512 20.8456 55.1481 20.8456H52.1808C50.9432 20.8456 50.0786 19.9519 50.0786 18.6716V8.18035C50.0786 6.87233 50.9033 6.02617 52.1808 6.02617H55.1481ZM58.7316 14.3433C58.5903 16.5869 57.405 17.724 55.2063 17.724H53.0986V9.14805H55.2063C57.4694 9.14805 58.6285 10.3072 58.7496 12.6878C58.7719 13.2379 58.7654 13.8418 58.7316 14.3433ZM18.9813 13.134C19.9424 12.4967 20.448 11.436 20.448 10.0431C20.448 8.10966 19.1531 6.02793 16.3096 6.02793H11.9454C10.7072 6.02793 9.84375 6.93069 9.84375 8.22342V18.6734C9.84375 19.9735 10.6881 20.8474 11.9454 20.8474H16.368C19.1531 20.8474 20.8162 19.2173 20.8162 16.4847C20.8162 14.9197 20.1376 13.6943 18.9813 13.134ZM12.8635 17.7866H16.0572C17.2316 17.7866 17.777 17.2953 17.777 16.2386C17.777 14.9601 16.8634 14.6912 16.0965 14.6912H12.8635V17.7866ZM12.8635 9.1292H15.8635C16.961 9.1292 17.429 9.53049 17.429 10.4729C17.429 11.4034 16.9163 11.8562 15.8635 11.8562H12.8635V9.1292Z" fill="#222222"/>
</svg>
