<svg xmlns="http://www.w3.org/2000/svg" width="70" height="70" viewBox="0 0 70 70">
    <g fill="none" fill-rule="evenodd">
        <path fill="#21C531" d="M14 0C6.489 0 0 6.488 0 14v42c0 7.512 6.489 14 14 14h42c7.512 0 14-6.488 14-14V14c0-7.512-6.488-14-14-14H14z"/>
        <path fill="#FFF" d="M30.23 39.676a4.96 4.96 0 1 1 9.92 0 4.96 4.96 0 0 1-9.92 0m4.96 16.97c-9.373 0-16.97-7.598-16.97-16.97v-23.04a4.504 4.504 0 0 1 9.007 0v23.04a7.963 7.963 0 1 0 3.002-6.229v-3.551a10.917 10.917 0 0 1 4.96-1.185c6.057 0 10.966 4.91 10.966 10.965 0 6.056-4.91 10.965-10.965 10.965-6.056 0-10.965-4.91-10.965-10.965v-23.04a1.501 1.501 0 0 0-3.003 0v23.04c0 7.714 6.254 13.968 13.968 13.968s13.967-6.254 13.967-13.968-6.253-13.967-13.967-13.967c-1.747 0-3.42.32-4.96.907v-3.172c1.568-.48 3.234-.737 4.96-.737 9.372 0 16.97 7.597 16.97 16.969s-7.598 16.97-16.97 16.97m0-36.942c-1.713 0-3.375.216-4.96.622v-3.69a7.506 7.506 0 1 0-15.013 0v23.04c0 11.03 8.942 19.972 19.973 19.972 11.03 0 19.972-8.941 19.972-19.972 0-11.03-8.942-19.972-19.972-19.972"/>
    </g>
</svg>
